<?xml version="1.0" standalone="no"?>
<!DOCTYPE svg PUBLIC "-//W3C//DTD SVG 20010904//EN"
 "http://www.w3.org/TR/2001/REC-SVG-20010904/DTD/svg10.dtd">
<svg version="1.0" xmlns="http://www.w3.org/2000/svg"
 width="200.000000pt" height="200.000000pt" viewBox="0 0 700.000000 700.000000"
 preserveAspectRatio="xMidYMid meet">
<metadata>
Custom svg made from Bell MT font
</metadata>
<g transform="translate(0.000000,20.000000)"
fill="#000000" stroke="none">
<path d="M118 58c17 50 13 91 13 150c0 61 3 167 3 231c0 45 -4 145 -22 166c-6 7 -16 15 -46 19c-5 1 -14 3 -14 11c0 9 10 9 14 9c14 0 76 -2 89 -2c30 0 164 6 191 6c40 0 197 -10 197 -147c0 -107 -97 -138 -151 -155v-2c114 -32 181 -78 181 -170c0 -37 -26 -178 -224 -178 c-7 0 -28 1 -49 2c-20 1 -40 2 -46 2c-32 0 -175 -3 -205 -3c-2 0 -15 0 -15 9c0 7 5 8 43 15c17 3 31 7 41 37zM224 614c-3 -74 -3 -192 -3 -261c16 -10 27 -7 40 -7c56 0 99 9 144 41c39 28 47 61 47 107c0 88 -60 134 -146 134c-33 0 -59 -7 -82 -14zM224 323 c-8 -22 -10 -164 -10 -192c0 -19 0 -87 8 -96c16 -17 86 -17 102 -17c42 0 69 3 102 33c36 32 50 75 50 122c0 116 -76 153 -184 153c-29 0 -51 -1 -68 -3z"/>
</g>
</svg>
